<?xml version="1.0" encoding="UTF-8"?>
<svg id="Capa_1" data-name="Capa 1" xmlns="http://www.w3.org/2000/svg" version="1.1" xmlns:xlink="http://www.w3.org/1999/xlink" viewBox="0 0 200 200">
  <defs>
    <style>
      .cls-1 {
        fill: url(#Degradado_sin_nombre_284);
      }

      .cls-1, .cls-2, .cls-3, .cls-4, .cls-5, .cls-6, .cls-7, .cls-8, .cls-9, .cls-10, .cls-11, .cls-12, .cls-13, .cls-14, .cls-15, .cls-16, .cls-17 {
        stroke-width: 0px;
      }

      .cls-2 {
        fill: url(#Degradado_sin_nombre_171-4);
      }

      .cls-3 {
        fill: url(#Degradado_sin_nombre_8);
      }

      .cls-4 {
        fill: url(#Degradado_sin_nombre_171);
      }

      .cls-5 {
        fill: url(#Degradado_sin_nombre_169);
      }

      .cls-6 {
        fill: url(#Degradado_sin_nombre_171-2);
      }

      .cls-7 {
        fill: url(#Degradado_sin_nombre_225);
      }

      .cls-8 {
        fill: none;
      }

      .cls-9 {
        fill: url(#Degradado_sin_nombre_171-3);
      }

      .cls-18 {
        clip-path: url(#clippath-1);
      }

      .cls-10 {
        fill: url(#Degradado_sin_nombre_186);
      }

      .cls-19 {
        fill: url(#Degradado_sin_nombre_169-3);
      }

      .cls-11 {
        fill: url(#Degradado_sin_nombre_186-2);
      }

      .cls-12 {
        fill: url(#Degradado_sin_nombre_7);
      }

      .cls-13 {
        fill: url(#Degradado_sin_nombre_169-4);
      }

      .cls-20 {
        clip-path: url(#clippath);
      }

      .cls-14 {
        fill: #fff;
      }

      .cls-15 {
        fill: url(#Degradado_sin_nombre_245);
      }

      .cls-16 {
        fill: url(#Degradado_sin_nombre_5);
      }

      .cls-17 {
        fill: url(#Degradado_sin_nombre_169-2);
      }
    </style>
    <linearGradient id="Degradado_sin_nombre_7" data-name="Degradado sin nombre 7" x1="1.3" y1="99.2" x2="198.7" y2="100.8" gradientUnits="userSpaceOnUse">
      <stop offset="0" stop-color="#a12846"/>
      <stop offset="1" stop-color="#530f1f"/>
    </linearGradient>
    <linearGradient id="Degradado_sin_nombre_186" data-name="Degradado sin nombre 186" x1="85.4" y1="99.7" x2="150.5" y2="99.7" gradientUnits="userSpaceOnUse">
      <stop offset="0" stop-color="#c67bd8"/>
      <stop offset=".6" stop-color="#bd4fd8"/>
      <stop offset=".9" stop-color="#7f2496"/>
    </linearGradient>
    <linearGradient id="Degradado_sin_nombre_8" data-name="Degradado sin nombre 8" x1="103.8" y1="42.8" x2="103.8" y2="88.2" gradientUnits="userSpaceOnUse">
      <stop offset="0" stop-color="#c67bd8"/>
      <stop offset=".4" stop-color="#bd4fd8"/>
      <stop offset=".8" stop-color="#7f2496"/>
    </linearGradient>
    <linearGradient id="Degradado_sin_nombre_186-2" data-name="Degradado sin nombre 186" x1="62.7" y1="83" x2="62.7" y2="50.7" xlink:href="#Degradado_sin_nombre_186"/>
    <linearGradient id="Degradado_sin_nombre_169" data-name="Degradado sin nombre 169" x1="112.5" y1="120.8" x2="199.9" y2="120.8" gradientUnits="userSpaceOnUse">
      <stop offset=".7" stop-color="#ddbb91"/>
      <stop offset=".9" stop-color="#bd8a4d"/>
    </linearGradient>
    <linearGradient id="Degradado_sin_nombre_169-2" data-name="Degradado sin nombre 169" x1="123.3" y1="64.4" x2="150.4" y2="64.4" xlink:href="#Degradado_sin_nombre_169"/>
    <clipPath id="clippath">
      <path class="cls-8" d="M85.4,85.5s4.3,16.7,5,20c.7,3.3,1.6,9.1,5.3,17.8,3.7,8.6,4.7,16.5,5.1,21.5.4,4.9,4,5.8,4.6-.9.5-6.7,3.2-26.6,13.5-39.4,10.4-12.8,33.9-38.5,31.5-53.8h-4.2s1.9,4.7-4.7,13.9-14.2,20.2-27.4,23.9c-13.2,3.7-22.4.4-28.5-3Z"/>
    </clipPath>
    <linearGradient id="Degradado_sin_nombre_245" data-name="Degradado sin nombre 245" x1="87.6" y1="106.4" x2="95.2" y2="104.9" gradientUnits="userSpaceOnUse">
      <stop offset=".4" stop-color="#7f2496"/>
      <stop offset=".9" stop-color="#bd4fd8"/>
    </linearGradient>
    <linearGradient id="Degradado_sin_nombre_169-3" data-name="Degradado sin nombre 169" x1="116" y1="149.2" x2="178.6" y2="94.8" xlink:href="#Degradado_sin_nombre_169"/>
    <linearGradient id="Degradado_sin_nombre_169-4" data-name="Degradado sin nombre 169" x1="116" y1="149.2" x2="178.6" y2="94.8" xlink:href="#Degradado_sin_nombre_169"/>
    <clipPath id="clippath-1">
      <path class="cls-13" d="M132.2,92s-5.6,3.5-15.1,20.6c-9.5,17.1-1.6,36.4-.9,36.9s2.3,0,4-5.6c1.8-5.6,7.7-17.1,21.1-17.4,13.4-.4,48,2.5,58.6-7,0,0-17.4,3-33.1.5-15.6-2.5-27.8-10.7-34.6-28Z"/>
    </clipPath>
    <linearGradient id="Degradado_sin_nombre_225" data-name="Degradado sin nombre 225" x1="103.6" y1="127.9" x2="137.8" y2="98.2" gradientUnits="userSpaceOnUse">
      <stop offset="0" stop-color="#ddbb91"/>
      <stop offset=".4" stop-color="#bd8a4d"/>
    </linearGradient>
    <linearGradient id="Degradado_sin_nombre_284" data-name="Degradado sin nombre 284" x1="91.9" y1="99.5" x2="5.5" y2="99.5" gradientUnits="userSpaceOnUse">
      <stop offset="0" stop-color="#8000b3"/>
      <stop offset=".1" stop-color="#7600a8"/>
      <stop offset=".6" stop-color="#570089"/>
      <stop offset=".8" stop-color="#4c007e"/>
      <stop offset=".9" stop-color="#450073"/>
      <stop offset=".9" stop-color="#3a0062"/>
      <stop offset="1" stop-color="#37005c"/>
    </linearGradient>
    <linearGradient id="Degradado_sin_nombre_171" data-name="Degradado sin nombre 171" x1="39.4" y1="87.8" x2="39.4" y2="87.8" gradientUnits="userSpaceOnUse">
      <stop offset="0" stop-color="#8000b3"/>
      <stop offset="0" stop-color="#7600a8"/>
      <stop offset=".3" stop-color="#570089"/>
      <stop offset=".4" stop-color="#4c007e"/>
      <stop offset=".7" stop-color="#4c007e"/>
      <stop offset="1" stop-color="#4c007e"/>
    </linearGradient>
    <linearGradient id="Degradado_sin_nombre_171-2" data-name="Degradado sin nombre 171" x1="60.3" y1="99.2" x2="65.4" y2="101.9" gradientTransform="translate(1.9 -1)" xlink:href="#Degradado_sin_nombre_171"/>
    <linearGradient id="Degradado_sin_nombre_171-3" data-name="Degradado sin nombre 171" x1="38.4" y1="91" x2="63.9" y2="104.6" gradientTransform="translate(1.9 -1)" xlink:href="#Degradado_sin_nombre_171"/>
    <linearGradient id="Degradado_sin_nombre_171-4" data-name="Degradado sin nombre 171" x1="62.7" y1="97.2" x2="62.9" y2="97.3" gradientTransform="translate(1.9 -1)" xlink:href="#Degradado_sin_nombre_171"/>
    <linearGradient id="Degradado_sin_nombre_5" data-name="Degradado sin nombre 5" x1="142.1" y1="135.2" x2="123.2" y2="160.2" gradientTransform="translate(31.5 -61.6) rotate(4.1)" gradientUnits="userSpaceOnUse">
      <stop offset=".3" stop-color="#ddbb91"/>
      <stop offset=".4" stop-color="#d7b386"/>
      <stop offset=".6" stop-color="#ca9e69"/>
      <stop offset=".8" stop-color="#bd8a4d"/>
    </linearGradient>
  </defs>
  <circle class="cls-12" cx="100" cy="100" r="98.7"/>
  <g>
    <path class="cls-10" d="M149.9,50.7h-3.8s1.9,4.7-4.7,13.9-14.2,20.2-27.4,23.9c-13.2,3.7-22.4.4-28.5-3,0,0,4.3,16.7,5,20,.7,3.3,1.6,9.1,5.3,17.8,3.7,8.6,4.7,16.5,5.1,21.5s4,5.8,4.6-.9c.5-6.7,3.2-26.6,13.5-39.4,10.2-12.6,33.2-37.7,31.5-53.1l-.5-.7Z"/>
    <path class="cls-3" d="M91.6,77.5c.1.1.3.3.4.4,0,3.5.5,7,1.6,10.2.1,0,.3,0,.4.1-.9-3.2-1.3-6.6-1-10,.2,0,.5,0,.8,0,0,3.8,2.4,6.1,3.5,6.9.2.2,2,1.4,2.6,1.7,0,0,0,0,0,0-3-1.9-5.1-5.9-5.1-10.6s4.1-11.8,9.1-11.8,9.1,5.3,9.1,11.8-2,8.5-4.9,10.4c.4-.2,1.2-.7,1.8-1.1,0,0,0,0,0,0,0,0,1.3-.8,2.5-2.4,0,1.7-.2,3.4-.4,5.1,0,0,.2,0,.3,0,.2-.6.4-1.3.5-2,.3-1.6.5-3.2.6-4.9.4-.9.6-1.9.6-3.2.3,0,.5,0,.8,0,.2,3.1,0,6.3-.3,9.4.1,0,.2,0,.4-.1.5-3.1.6-6.3.7-9.5.2-.1.5-.3.6-.5.5-.5.8-1.3,1-2,.2-.9.3-1.9,0-2.7-.3-.9-1.1-1.6-2-1.6.6-3,.5-6.1-.3-9-.2-.8-.4-1.6-.9-2.2-.9-1.1-1.9-1.9-2.9-2.4.6-1.6.1-3.6-1.2-4.8.6-1.4.6-3.1-.1-4.5-.7-1.4-2.1-2.4-3.6-2.8-.9-.2-1.9-.1-2.8,0-.2,0-.4,0-.6,0,0-1.1.7-2.2,1.7-2.7-.8.2-1.5.7-2,1.4-.3.5-.5,1-.6,1.6-.2,0-.4.1-.5.2,0-.3-.1-.7,0-1,0-.6.3-1.1.6-1.6-.9.7-1.3,1.9-1.2,3-1.3.9-2,2.7-1.6,4.3-.8.3-1.3,1.1-1.5,1.9-.5,1.5-.5,3.2,0,4.6-1.2.5-2.5,1.4-3.5,2.7-.5.6-.7,1.4-.9,2.2-.8,2.9-.9,6-.3,9-.9,0-1.7.8-2,1.6-.3.9-.2,1.8,0,2.7.2.7.5,1.5,1,2Z"/>
    <path class="cls-11" d="M70,83s-18.6-19.9-13.8-32.3h2.9s-3,7.6,10.9,22.6v9.8Z"/>
    <path class="cls-5" d="M132.2,92s-5.6,3.5-15.1,20.6c-9.5,17.1-1.6,36.4-.9,36.9s2.3,0,4-5.6c1.8-5.6,7.7-17.1,21.1-17.4,13.4-.4,48,2.5,58.6-7,0,0-17.4,3-33.1.5-15.6-2.5-27.8-10.7-34.6-28Z"/>
    <path class="cls-17" d="M123.3,80.6l10.9-9.7s-.9-14.6,12.1-19.5c0,0,3.9.2,4.2,0s-2.6-5.9-12.8-1.5c-10.2,4.4-14,26.7-14.4,30.6Z"/>
    <g class="cls-20">
      <path class="cls-15" d="M85.7,85s13.7,28.5,12.4,39c-1.3,10.4-13.4-14.3-12.4-39Z"/>
    </g>
    <g>
      <path class="cls-19" d="M132.2,92s-5.6,3.5-15.1,20.6c-9.5,17.1-1.6,36.4-.9,36.9s2.3,0,4-5.6c1.8-5.6,7.7-17.1,21.1-17.4,13.4-.4,48,2.5,58.6-7,0,0-17.4,3-33.1.5-15.6-2.5-27.8-10.7-34.6-28Z"/>
      <g class="cls-18">
        <path class="cls-7" d="M132.4,92s-17.9,31.3-19.3,46.8l-3.5-25.3,11.4-19.7,11.4-1.8Z"/>
      </g>
    </g>
    <path class="cls-1" d="M83.4,84.4c-7.7-31.3-17.1-35.5-21.5-36.5-4.4-1.1-5.8,2.8-5.8,2.8,7.8-.5,17,7.4,17.2,31.3.2,23.9-14.4,31.3-26.7,36.8-12.3,5.5-41.1,0-41.1,0,4.9,8.4,25.8,8.3,48.2,7.6,20.3-.6,27.1,8,29.7,12.1.7,1.2,1.3,2.5,1.7,4,1.4,5.5,2.4,14.5,5.3,4.1,3.5-12.7.7-30.8-7-62.1Z"/>
    <path class="cls-4" d="M39.4,87.8"/>
    <g>
      <path class="cls-6" d="M64.6,104.4c1.7-2,3.3-4.4,4.6-7.2-.4-.3-.9-.5-1.3-.6-1.7-.6-3.2-.2-4.2-1.2,1.7,3.1,2,6.4.9,9Z"/>
      <path class="cls-9" d="M48.1,104.6c-4.7-4.7-5.7-11.3-2.1-14.9,3.6-3.5,10.3-2.6,15,2,1.1,1.1,2,2.3,2.7,3.5.7.5,1.7.5,2.7.6,1.1.1,2.1.4,3,.8,0-.2.2-.3.2-.5,0,0-.2,0-.3-.1-.9-.3-1.9-.5-2.9-.6-1.3-.1-2.3-.1-3.2-.9,1.1.4,2.6-.8,3.4-1.5h.1c0-.2.1-.2.2-.3,0,0,0-.2,0-.1-1.1.2-2.1,0-3-.7-.8-.7-1.1-1.8-1.4-2.8-.4-1.3-1-2.5-1.9-3.5-1.8-2.1-4.6-3.6-7.6-3.4-1.3-.2-2.6-.2-4.1,0-3.2.6-6.8,2.1-6.9,5.8-2.3,1.4-2.9,4.6-2.7,7.4-.1,2.8.7,5.7,2.3,7.7,1.3,1.5,3.1,2.5,4.9,3.3,1,.4,1.9.9,2.8,1.5.5.3,1.3.8,1.8,1.4.3.8.4,1.6-.1,2.4v.2c1-.8,1.3-1.8,1.3-2.9.5,1,1.1,2,2,2.8.3.2.5.5.9.7.1,0,.3-.2.4-.3-.5-.3-.9-.7-1.3-1.1-.6-.6-1-1.2-1.3-1.9,0,0,0,0,0-.1.9,1.2,2,2.2,3.3,2.8,1.5-1,3.3-2.4,5.1-4-3.8,1.9-9.3.7-13.3-3.3ZM61.2,86.9c.9,1.5,1,3.5,2.1,4.9.4.5,1.1,1,1.9,1.2-1.7-.1-2.9-1.6-3.4-3.2-.9-3.3-3.6-6.3-7.5-7.4,2.8.5,5.3,2.1,6.8,4.6ZM49.8,107.4c-1.7-1.2-3.8-1.8-5.6-2.9-1.9-1.2-3.2-2.9-3.8-5,0-.2-.1-.4-.2-.6,0,0,0,.2,0,.2,1.7,4.2,6.1,5.3,9.3,8.1.1.1.3.3.5.4-.1,0-.2-.1-.3-.2Z"/>
      <path class="cls-2" d="M64.6,96.3c0,0,.1,0,.2.1,0,0,0,0,0,0,0,0,0,0-.1,0Z"/>
    </g>
    <path class="cls-16" d="M170.7,93.5c-.7-1-1.5-1.5-2-2.7-.2-.8.1-1.4-.6-2.2-.6-.9-1.6-1.1-2.1-1.9-.4-.5-.3-1.3-.8-1.9-.8-1-2.3-1.2-3.4-.9h-.1c-.2-.2-.5-.6-.8-.9-1.2-1.2-2.9-3.2-4.4-3.6-.8-.1-1.5.3-2.2,0-.7-.4-1.1-1.7-1.9-1.7-2.2,0-1.7,4.2-4.5,4.1-1.1,0-1.4-1.3-2.6-.6-1,.6-.6,2.2-1.3,3-1.6,1.6-4.2-.6-5.3,2.2-.4,1,.2,2.5-.4,3.4-.5,1-1.6.7-2.2,1.4-1.8,2,1,3,1,5,.1,1.4-.7,1.4-.3,2.3l.2.5c0,.1.1.2.2.3.3.3.6.7,1,1.1.5-2.9,2.2-6,4.9-8.4,5.2-4.5,12.3-4.9,15.7-.9,3.5,4,2.1,10.9-3.2,15.4s-5.9,3.6-8.8,3.7c.2.2.4.4.6.6.3.3.7.6,1,.8l.5.3c1.5,1,2.9,1.3,5,1.1.9-.1,2.2,0,3-.4.8-.5,1-1.4,1.8-1.8,1.1-.5,2.6,0,3.6-.6.9-.7.4-1.5,1-2.2.5-.8,1.3-.6,1.9-1.3,1-1,.7-2.1,1.3-3.3,1.4-2.6,3.7-1,3.9-4.4,0-2.4,1.7-3.7.3-5.6Z"/>
  </g>
  <g>
    <path class="cls-14" d="M43.1,175.1c-2.5,0-4.5-.7-6-2.1-1.4-1.4-2.1-3.4-2.1-5.9v-9.4h5.6v9.2c0,1.3.2,2.2.7,2.8.5.5,1.1.8,1.8.8s1.4-.3,1.9-.8c.5-.5.7-1.5.7-2.8v-9.2h5.5v9.4c0,2.6-.7,4.5-2.1,5.9-1.4,1.4-3.4,2.1-6,2.1Z"/>
    <path class="cls-14" d="M60,174.7v-17.1h4.6l8.4,10.4h-2.1v-10.4h5.5v17.1h-4.6l-8.4-10.4h2.1v10.4h-5.5Z"/>
    <path class="cls-14" d="M85.3,174.7v-17.1h5.6v17.1h-5.6Z"/>
    <path class="cls-14" d="M99.8,174.7v-17.1h8.2c1.8,0,3.5.3,4.9,1,1.4.7,2.5,1.7,3.3,2.9.8,1.3,1.2,2.8,1.2,4.5s-.4,3.3-1.2,4.6c-.8,1.3-1.9,2.3-3.3,3-1.4.7-3,1-4.9,1h-8.2ZM105.4,170.2h2.3c.8,0,1.5-.2,2.1-.5.6-.3,1.1-.8,1.4-1.4s.5-1.4.5-2.2-.2-1.6-.5-2.2-.8-1.1-1.4-1.4c-.6-.3-1.3-.5-2.1-.5h-2.3v8.1Z"/>
    <path class="cls-14" d="M123.6,174.7l7.3-17.1h5.5l7.3,17.1h-5.8l-5.4-14.3h2.2l-5.4,14.3h-5.7ZM127.9,171.7l1.4-4.1h7.6l1.4,4.1h-10.5Z"/>
    <path class="cls-14" d="M156.9,175.1c-1.4,0-2.7-.2-4-.5s-2.4-.7-3.2-1.3l1.8-4.2c.8.5,1.7.8,2.6,1.1,1,.3,1.9.4,2.8.4s1,0,1.3-.1.5-.2.7-.3c.1-.1.2-.3.2-.5,0-.3-.2-.6-.5-.7s-.8-.3-1.3-.5c-.5-.1-1.1-.3-1.8-.4-.6-.1-1.3-.3-2-.5s-1.3-.5-1.8-.9c-.5-.4-1-.9-1.3-1.5-.3-.6-.5-1.4-.5-2.3s.3-2,.9-2.9c.6-.9,1.4-1.6,2.6-2.1,1.1-.5,2.6-.8,4.3-.8s2.2.1,3.3.4c1.1.2,2.1.6,2.9,1.1l-1.7,4.2c-.8-.4-1.6-.7-2.4-1-.8-.2-1.5-.3-2.2-.3s-1,0-1.3.1c-.3,0-.5.2-.7.4s-.2.3-.2.5c0,.3.2.5.5.7.3.2.8.3,1.3.4.5.1,1.1.2,1.8.4.7.1,1.3.3,2,.5.6.2,1.2.5,1.8.9.5.4,1,.9,1.3,1.5.3.6.5,1.3.5,2.2s-.3,2-.9,2.9c-.6.9-1.4,1.6-2.6,2.1-1.1.5-2.6.8-4.3.8Z"/>
  </g>
</svg>